<?xml version="1.0" standalone="no"?>
<!DOCTYPE svg PUBLIC "-//W3C//DTD SVG 20010904//EN"
 "http://www.w3.org/TR/2001/REC-SVG-20010904/DTD/svg10.dtd">
<svg version="1.0" xmlns="http://www.w3.org/2000/svg"
 width="700.000000pt" height="700.000000pt" viewBox="0 0 700.000000 700.000000"
 preserveAspectRatio="xMidYMid meet">
<metadata>
Created by potrace 1.14, written by Peter Selinger 2001-2017
</metadata>
<g transform="translate(0.000000,700.000000) scale(0.100000,-0.100000)"
fill="#000000" stroke="none">
<path d="M5190 5814 c-410 -299 -781 -570 -825 -602 -256 -187 -657 -480 -700
-512 -27 -20 -192 -140 -365 -267 -822 -599 -1010 -738 -1010 -743 0 -3 46
-25 102 -50 57 -24 126 -54 153 -66 28 -12 109 -48 180 -80 72 -31 150 -66
175 -77 25 -11 81 -35 125 -54 44 -19 81 -36 84 -38 3 -4 -29 -51 -62 -90 -8
-10 -145 -192 -425 -565 -81 -107 -149 -197 -152 -200 -6 -6 -168 -220 -223
-294 -20 -28 -43 -58 -50 -66 -10 -13 -115 -152 -139 -185 -4 -5 -18 -23 -31
-40 -20 -26 -180 -237 -671 -890 -67 -88 -123 -162 -126 -165 -3 -3 -17 -21
-30 -40 -13 -19 -27 -37 -30 -40 -5 -5 -61 -78 -84 -110 -9 -12 -8 -13 4 -4
63 46 646 475 910 669 179 131 375 275 435 320 61 45 166 123 235 173 69 51
132 98 140 105 9 7 38 28 65 47 28 19 77 55 110 80 33 25 176 131 318 235 352
258 456 335 707 520 118 87 326 239 462 339 135 100 243 184 239 188 -4 5
-130 62 -281 128 -151 66 -284 125 -295 130 -11 5 -67 30 -125 56 -58 25 -106
47 -108 48 -1 2 27 41 62 87 35 46 120 157 188 246 67 88 196 257 285 375 90
117 196 256 236 308 74 96 263 345 347 455 25 33 47 62 50 65 3 3 25 32 49 65
25 33 47 62 50 65 4 3 26 32 51 65 24 33 48 65 52 70 5 6 45 57 88 115 44 58
103 134 130 170 28 36 98 128 157 205 58 77 148 195 200 263 52 68 93 125 91
127 -1 2 -338 -242 -748 -541z"/>
</g>
</svg>
